<svg id="_20-award" height="512" viewBox="0 0 192 192" width="512" xmlns="http://www.w3.org/2000/svg" data-name="20-award"><path d="m175.173 165.875-22.448-44.063a15.82 15.82 0 0 1 -4.125.792l-13.165.679-4.709 12.317a16.143 16.143 0 0 1 -15.03 10.254 15.853 15.853 0 0 1 -5.01-.819l21.714 42.629c3.167 6.219 12.582 5.471 14.737-1.159l4.52-13.91 13.911 4.52a8.065 8.065 0 0 0 9.605-11.24z"/><path d="m61.275 135.6-4.71-12.317-13.165-.683a15.805 15.805 0 0 1 -4.123-.792l-22.45 44.067c-3.172 6.228 2.964 13.389 9.6 11.24l13.911-4.52 4.52 13.91c2.155 6.63 11.57 7.378 14.737 1.159l21.718-42.631a15.859 15.859 0 0 1 -5.011.819 16.141 16.141 0 0 1 -15.027-10.252z"/><path d="m96.191 55.49a37.313 37.313 0 0 0 -5.191-1.502v30.081c6.986-1.469 16-5.269 16-15.069 0-4.06-1.12-9.876-10.809-13.51z"/><path d="m165.032 62.781-14.294-11.568 4.762-17.765a8.079 8.079 0 0 0 -7.315-10.062l-18.367-.948-6.565-17.178a8.081 8.081 0 0 0 -11.839-3.846l-15.414 10.039-15.414-10.039a8.081 8.081 0 0 0 -11.839 3.846l-6.569 17.178-18.367.948a8.079 8.079 0 0 0 -7.311 10.062l4.766 17.764-14.3 11.569a8.081 8.081 0 0 0 0 12.438l14.296 11.568-4.762 17.765a8.079 8.079 0 0 0 7.315 10.062l18.367.948 6.569 17.178a8.081 8.081 0 0 0 11.839 3.846l15.41-10.039 15.414 10.039a8.081 8.081 0 0 0 11.839-3.846l6.569-17.178 18.367-.948a8.079 8.079 0 0 0 7.315-10.062l-4.766-17.764 14.295-11.569a8.081 8.081 0 0 0 -.001-12.438zm-82.032 38.219a8 8 0 0 1 -8-8v-48a8 8 0 0 1 8-8c13.835 0 40 6.688 40 32s-26.165 32-40 32z"/></svg>